<svg width="31" height="34" viewBox="0 0 31 34" fill="none" xmlns="http://www.w3.org/2000/svg">
<path fill-rule="evenodd" clip-rule="evenodd" d="M26.3789 13.2718C28.7065 20.0637 25.7227 27.2389 19.7145 29.2979C13.7062 31.3569 6.94869 27.5201 4.6211 20.7282C2.2935 13.9363 5.27727 6.76113 11.2855 4.7021C17.2938 2.64308 24.0513 6.47987 26.3789 13.2718ZM24.4869 13.9202C26.2774 19.1448 24.1288 24.6138 19.6879 26.1357C15.247 27.6576 10.1955 24.656 8.40506 19.4314C6.61461 14.2069 8.7632 8.73778 13.2041 7.21589C17.645 5.694 22.6965 8.69562 24.4869 13.9202ZM18.811 15.8653C19.5217 17.9392 18.474 19.1521 17.8916 19.3517C17.3092 19.5513 15.7377 19.2359 15.027 17.1621C14.3163 15.0883 15.364 13.8753 15.9464 13.6757C16.5288 13.4761 18.1003 13.7915 18.811 15.8653ZM21.6489 14.8928C22.7232 18.0275 21.4764 21.2944 18.8641 22.1897C16.2518 23.0849 13.2633 21.2694 12.189 18.1347C11.1148 14.9999 12.3616 11.733 14.9738 10.8378C17.5861 9.94253 20.5747 11.758 21.6489 14.8928Z" fill="white"/>
</svg>
